# xmcd
#
# Track frame offsets: 
#        150
#        24197
#        49557
#        56362
#        73960
#        79940
#        101602
#        119697
#        140665
#        160032
#        183452
#        209067
#        226540
#        254820
#        270652
#
# Disc length: 3816 seconds
#
# Revision: 0
# Processed by: cddbd v1.5.2PL0 Copyright (c) Steve Scherf et al.
# Submitted via: ExactAudioCopy v0.95b4
#
DISCID=d80ee60f
DTITLE=Henry Townsend - The 88 Blues
DYEAR=1998
DGENRE=Blues
TTITLE0=I Believe In Love
TTITLE1=No Doggin'
TTITLE2=She's Gone
TTITLE3=You've Changed
TTITLE4=Drivin' On The Highway
TTITLE5=Search Your Heart
TTITLE6=It's Got To End Somewhere
TTITLE7=Hear Me Cryin'
TTITLE8=Train Comin'
TTITLE9=Gone Too Long
TTITLE10=Change Your Name
TTITLE11=Leave You Alone
TTITLE12=The Way You're Actin'
TTITLE13=The 88 Blues
TTITLE14=Baby Please Don't Go
EXTD=
EXTT0=
EXTT1=
EXTT2=
EXTT3=
EXTT4=
EXTT5=
EXTT6=
EXTT7=
EXTT8=
EXTT9=
EXTT10=
EXTT11=
EXTT12=
EXTT13=
EXTT14=
PLAYORDER=
